<svg xmlns="http://www.w3.org/2000/svg" data-name="Layer 1" width="30" height="40" viewBox="0 0 91.16264 370.30303" xmlns:xlink="http://www.w3.org/1999/xlink"><path d="M589.74918,375.56615a293.68077,293.68077,0,0,1,9.64012-52.88086,261.409,261.409,0,0,0-22.36875,54.38393c-8.37425,27.89529-12.73538,57.0851-11.35751,86.23231.69341,23.49885,3.86451,47.099,12.27951,69.164,2.40534,6.063,4.59582,12.386,8.42633,17.721a31.35355,31.35355,0,0,1-1.43518-5.48372,215.36148,215.36148,0,0,1-2.63067-22.88706c-2.05625-30.36077,1.42363-60.69518,2.92441-91.005C586.10564,412.34866,587.77182,393.94008,589.74918,375.56615Z" transform="translate(-554.41868 -264.84849)" fill="#f97316"/><path d="M645.07516,450.10765c-1.6446-23.39567-5.72419-46.56907-10.43529-69.52172-7.65557-36.32293-20.54262-88.085-31.57674-110.08353-3.535-8.24568-14.14377-7.25548-16.27847,1.55679q-4.88805,19.67443-9.99619,39.29561c-7.20012,28.40848-15.18082,56.72685-19.3613,85.7821-3.41778,24.6939-4.148,49.80968-1.02159,74.57375,1.78167,13.41626,3.99634,26.95171,8.79941,39.656,6.64531,16.99235,18.49574,31.455,28.709,46.48986-.64241,9.40009-.92832,18.82959-.97386,28.245-.447,16.34536-.79605,32.69857-.6021,49.04992,2.88432-12.8646,5.61523-25.78783,7.7582-38.80149q.89433-.9579,1.78015-1.923a5.52448,5.52448,0,0,0,3.795-2.5776c4.8205-6.20393,7.10359-9.31347,10.2542-13.45374,2.26567-2.43128,5.33718-5.22571,3.34151-8.00249-1.35608-1.73428-3.20073-1.49011-4.7257-.48356.39355-.8771.79626-1.7504,1.18894-2.62772q-3.19289,3.96137-6.30907,7.98364c-1.1349,1.37231-2.21489,2.79061-3.25565,4.239-1.518,2.02007-3.01463,4.05637-4.45353,6.13365.68644-5.03613,1.2772-10.08554,1.72262-15.15381q2.77025-38.47173,3.34587-77.09568.00915-1.65609.02179-3.31241c-2.63459,8.11482-4.84687,16.362-6.74839,24.67821a271.04105,271.04105,0,0,0-6.05433,42c-7.71833-16.918-16.60294-31.55463-21.10048-48.45589-3.36374-14.51891-4.15215-28.7749-4.76864-46.17268-.42384-18.37132-.11549-36.79036,2.08131-55.05239,2.51169-25.03592,16.76245-74.17312,27.16484-112.46153,5.403,15.03068,9.52157,30.51452,13.35164,46.01165,5.44395,21.50264,10.548,43.11054,14.268,64.98636,4.13842,26.271,7.94169,47.98323,7.67932,77.40174-.871,12.84445-3.36613,29.60538-9.018,45.44311-2.67839,7.54574-8.21016,16.53091-14.47739,23.677-.44782.534-.90566,1.05961-1.35979,1.58718a82.80629,82.80629,0,0,0,14.21677-12.88629c7.2023-8.45085,11.99229-18.67128,15.47283-29.14612,2.78647-8.54172,5.45179-17.18717,6.76168-26.096A178.39654,178.39654,0,0,0,645.07516,450.10765Z" transform="translate(-554.41868 -264.84849)"/></svg>